<svg width="44" height="44" viewBox="0 0 44 44" fill="none" xmlns="http://www.w3.org/2000/svg">
<g clip-path="url(#clip0)">
<path d="M18.334 23.2862H17.8023C17.5254 23.2862 17.301 23.5106 17.301 23.7875C17.301 24.0643 17.5254 24.2888 17.8023 24.2888H18.334C18.611 24.2888 18.8353 24.0643 18.8353 23.7875C18.8353 23.5106 18.611 23.2862 18.334 23.2862Z" fill="#242731"/>
<path d="M11.1904 34.6188H8.5475C7.75285 34.6188 7.10638 35.2652 7.10638 36.0599V37.6702C7.10638 38.4648 7.75285 39.1113 8.5475 39.1113H16.8984C17.1753 39.1113 17.3997 38.8868 17.3997 38.61C17.3997 38.3332 17.1753 38.1087 16.8984 38.1087H8.5475C8.30575 38.1087 8.10897 37.912 8.10897 37.6702V36.0599C8.10897 35.8181 8.30568 35.6214 8.5475 35.6214H27.5885C27.8303 35.6214 28.0271 35.8181 28.0271 36.0599V37.6702C28.0271 37.912 27.8304 38.1087 27.5885 38.1087H19.2377C18.9608 38.1087 18.7365 38.3332 18.7365 38.61C18.7365 38.8868 18.9608 39.1113 19.2377 39.1113H27.5885C28.3831 39.1113 29.0297 38.4648 29.0297 37.6702V36.0599C29.0297 35.2652 28.3831 34.6188 27.5885 34.6188H24.9457C24.7357 33.2186 23.5983 32.1181 22.1807 31.9641L21.7458 30.1802C21.6803 29.9112 21.4091 29.7463 21.1401 29.8119C20.8712 29.8775 20.7063 30.1487 20.7718 30.4177L21.1442 31.9452H14.992L16.3495 26.3777C17.3872 27.0675 18.7487 27.0677 19.7868 26.3777L20.2154 28.1356C20.2809 28.4045 20.5523 28.5696 20.8211 28.5039C21.0901 28.4383 21.255 28.1671 21.1894 27.8981L20.7506 26.0986C24.6796 27.9843 29.4051 27.3183 32.6681 24.3435L33.301 24.9764C33.4968 25.1722 33.8142 25.1722 34.0099 24.9764C34.2057 24.7807 34.2057 24.4632 34.0099 24.2675C33.5107 23.7683 32.1306 22.3882 31.615 21.8726L34.8464 10.0104C35.3307 9.90763 35.7759 9.66781 36.1343 9.30942C37.1462 8.29761 37.1463 6.66005 36.1344 5.6481C35.1226 4.63636 33.485 4.63616 32.4732 5.6481C32.1147 6.0065 31.875 6.45164 31.7721 6.93609L19.9097 10.1673L17.5149 7.77245C17.3191 7.57668 17.0017 7.57668 16.8059 7.77245C16.6102 7.96822 16.6102 8.28564 16.8059 8.48135L17.4387 9.11411C14.347 12.5038 13.7289 17.4823 15.9368 21.5283C15.336 22.0954 14.96 22.8981 14.96 23.7874C14.96 24.4458 15.1663 25.0565 15.5169 25.5596L13.9553 31.9641C12.5378 32.1181 11.4003 33.2186 11.1904 34.6188ZM18.0681 25.8929C16.911 25.8929 15.9626 24.9518 15.9626 23.7874C15.9626 22.6223 16.9125 21.682 18.0681 21.682C19.229 21.682 20.1735 22.6265 20.1735 23.7874C20.1735 24.9361 19.2399 25.8929 18.0681 25.8929ZM33.1821 6.35687C33.8005 5.73834 34.807 5.73834 35.4254 6.35687H35.4254C36.0454 6.97687 36.0455 7.98032 35.4254 8.60032C34.8069 9.21892 33.8004 9.21878 33.182 8.60032C32.5621 7.98039 32.5619 6.97693 33.1821 6.35687ZM32.906 9.65805C33.1802 9.83464 33.484 9.95729 33.8047 10.0196L30.7984 21.0559L26.1187 16.3762L32.906 9.65805ZM31.7627 7.97758C31.8316 8.3325 31.9745 8.66689 32.1828 8.96312L25.4097 15.6672L20.7265 10.9839L31.7627 7.97758ZM18.1483 9.82374C18.6655 10.3409 31.424 23.0994 31.9586 23.634C31.3829 24.1539 30.7853 24.5701 30.1821 24.9077L16.8734 11.5991C17.233 10.9582 17.6716 10.3512 18.1483 9.82374ZM16.4064 12.5499L29.2303 25.3738C26.5945 26.4929 23.5374 26.4248 20.9057 25.057C21.0729 24.6838 21.1761 24.2435 21.1761 23.7874C21.1761 22.0737 19.7819 20.6794 18.0681 20.6794C17.6178 20.6794 17.1649 20.7809 16.7706 20.9627C15.3556 18.3077 15.2712 15.2157 16.4064 12.5499ZM14.3537 32.9478H21.7824H21.8393C22.858 32.9478 23.7126 33.6636 23.9266 34.6188H12.2095C12.4234 33.6636 13.278 32.9478 14.2968 32.9478H14.3537Z" fill="#242731"/>
</g>
<defs>
<clipPath id="clip0">
<rect width="34.2222" height="34.2222" fill="white" transform="translate(4.88892 4.88892)"/>
</clipPath>
</defs>
</svg>
