<svg width="44" height="44" viewBox="0 0 44 44" fill="none" xmlns="http://www.w3.org/2000/svg">
<g clip-path="url(#clip0)">
<path d="M40.2563 15.2407L24.6657 7.62455C23.3216 6.95254 21.0368 6.95254 19.6928 7.62455L3.74368 15.2407C2.62366 15.7783 2.44446 16.5399 2.44446 16.9431C2.44446 17.3463 2.62366 18.0631 3.74368 18.6456L5.04291 19.2728V26.4409C4.23649 26.7545 3.65408 27.5609 3.65408 28.4569C3.65408 29.3529 4.23649 30.1594 4.9981 30.473L2.98207 36.8795H8.62697L6.61093 30.473C7.41735 30.1594 7.95496 29.3529 7.95496 28.4569C7.95496 27.5161 7.37255 26.7545 6.56613 26.4409V20.0344L8.94058 21.1992V30.5178C8.94058 30.6522 8.98538 30.7866 9.07498 30.921C9.29898 31.1898 13.4655 36.8795 21.9776 36.8795C30.4898 36.8795 34.6562 31.145 34.8354 30.921C34.925 30.7866 34.9698 30.6522 34.9698 30.5178V21.244L40.2563 18.6456C41.3764 18.1079 41.5556 17.3463 41.5556 16.9431C41.5108 16.5399 41.3764 15.7783 40.2563 15.2407ZM33.5362 30.2938C32.8194 31.1898 28.9665 35.4907 21.9776 35.4907C14.9887 35.4907 11.1358 31.1898 10.419 30.2938V21.8264L19.6928 26.2617C20.3648 26.5753 21.2608 26.7545 22.1568 26.7545C23.0976 26.7545 23.9936 26.5753 24.6657 26.2169L33.5362 21.8712V30.2938ZM39.6291 17.3911L34.253 20.0344C34.029 20.0344 33.8498 20.124 33.7602 20.3032L24.0385 25.0073C23.0976 25.5001 21.2608 25.5001 20.2752 25.0073L8.31336 19.2728L22.0672 17.6599C22.4704 17.6151 22.7392 17.2567 22.6944 16.8983C22.6496 16.4951 22.2912 16.2263 21.9328 16.2711L5.98372 18.1527L4.37089 17.3911C3.96769 17.2119 3.87808 16.9879 3.87808 16.9879C3.87808 16.9431 3.96769 16.7639 4.37089 16.5847L20.32 8.92378C20.8128 8.69977 21.4848 8.56537 22.1568 8.56537C22.8736 8.56537 23.5904 8.69977 24.0385 8.92378L39.6291 16.5399C40.0323 16.7191 40.1219 16.8983 40.1219 16.9879C40.1219 16.9879 39.9875 17.2119 39.6291 17.3911Z" fill="#242731"/>
</g>
<defs>
<clipPath id="clip0">
<rect width="39.1111" height="39.1111" fill="white" transform="translate(2.44446 2.44446)"/>
</clipPath>
</defs>
</svg>
