<svg width="45" height="45" viewBox="0 0 45 45" fill="none" xmlns="http://www.w3.org/2000/svg">
<g clip-path="url(#clip0)">
<path d="M35.4107 7.87788C35.1707 7.63806 34.7817 7.63786 34.5416 7.87788L28.1698 14.2495C27.9297 14.4895 27.9297 14.8785 28.1697 15.1186C28.2897 15.2386 28.4469 15.2986 28.6043 15.2986C28.7615 15.2986 28.9188 15.2386 29.0389 15.1186L35.4107 8.747C35.6507 8.50691 35.6507 8.11784 35.4107 7.87788Z" fill="#242731"/>
<path d="M37.1434 9.58318C36.9033 9.34329 36.5143 9.34329 36.2743 9.58318L29.9025 15.9549C29.6626 16.195 29.6626 16.584 29.9024 16.824C30.0225 16.944 30.1798 17.004 30.337 17.004C30.4942 17.004 30.6516 16.944 30.7716 16.824L37.1434 10.4522C37.3834 10.2122 37.3834 9.82313 37.1434 9.58318Z" fill="#242731"/>
<path d="M31.1327 20.3433L39.0424 12.4336C39.2825 12.1935 39.2825 11.8045 39.0424 11.5645C38.8023 11.3246 38.4133 11.3244 38.1733 11.5645L30.2637 19.4742C29.2892 20.4486 27.7992 20.7043 26.5561 20.1106C26.3088 19.9926 26.0135 20.0522 25.8316 20.2572L23.144 23.2852C23.1429 23.2864 23.1417 23.2874 23.1407 23.2886C23.1396 23.2898 23.1388 23.2911 23.1377 23.2923L11.5216 36.3794C11.5187 36.3827 11.5157 36.3861 11.5129 36.3895C11.4746 36.4345 11.4384 36.474 11.4018 36.5107C10.6348 37.2776 9.38688 37.2776 8.62022 36.5107C8.24872 36.1393 8.04412 35.6453 8.04412 35.1199C8.04412 34.5945 8.24872 34.1006 8.62089 33.7284C8.65658 33.6925 8.69602 33.6565 8.7414 33.6179C8.74488 33.615 8.74822 33.6121 8.75156 33.6091L16.0136 27.1634C16.2675 26.9381 16.2905 26.5497 16.0653 26.2959C15.84 26.042 15.4515 26.0188 15.1978 26.2443L7.94052 32.6857C7.87114 32.7448 7.80905 32.8021 7.75116 32.86C7.14753 33.4637 6.81506 34.2662 6.81506 35.1199C6.81506 35.9735 7.14746 36.7761 7.75109 37.3798C8.37425 38.0028 9.19257 38.3143 10.0111 38.3143C10.8293 38.3143 11.6478 38.0029 12.2705 37.3801C12.3295 37.3212 12.3867 37.2591 12.4454 37.1904L21.2971 27.2174L30.1491 37.1905C30.2077 37.2593 30.2648 37.3214 30.3235 37.3799C30.9465 38.0029 31.7649 38.3144 32.5833 38.3144C33.4017 38.3144 34.2202 38.0029 34.8433 37.3798C36.0892 36.1337 36.0892 34.1063 34.8436 32.8606C34.7848 32.8016 34.7225 32.7444 34.6539 32.6858L24.468 23.645L26.4609 21.3997C28.0755 21.9718 29.9026 21.5733 31.1327 20.3433ZM33.8427 33.6092C33.8461 33.6121 33.8495 33.6151 33.8529 33.6179C33.8979 33.6562 33.9374 33.6924 33.9741 33.729C34.7409 34.496 34.7409 35.7438 33.9741 36.5106C33.2071 37.2774 31.9593 37.2774 31.1921 36.5103C31.1558 36.474 31.1195 36.4344 31.0812 36.3894C31.0783 36.386 31.0754 36.3826 31.0725 36.3792L22.1187 26.2916L23.652 24.5641L33.8427 33.6092Z" fill="#242731"/>
<path d="M33.5662 6.08794C33.3262 5.84805 32.9371 5.84805 32.6971 6.08794L24.7875 13.9977C23.5572 15.2279 23.1589 17.0547 23.731 18.6697L21.297 20.8301L18.9577 18.7538C20.1674 16.3735 19.7258 13.4833 17.8066 11.564C15.9004 9.65788 13.6926 8.31646 11.5897 7.78702C9.39446 7.23445 7.51237 7.60334 6.2896 8.82605C5.06682 10.0488 4.69786 11.9311 5.25057 14.1262C5.78007 16.2289 7.12142 18.4368 9.02771 20.3429C10.947 22.2623 13.837 22.7039 16.2175 21.4941C16.2175 21.4941 18.5051 24.0713 18.5341 24.1041C18.6555 24.2409 18.8243 24.3106 18.9939 24.3106C19.139 24.3106 19.2846 24.2595 19.4017 24.1557L24.8736 19.2988C25.0785 19.1169 25.1382 18.8215 25.0202 18.5743C24.4264 17.331 24.6821 15.8411 25.6566 14.8668L33.5662 6.95706C33.8063 6.71697 33.8063 6.32796 33.5662 6.08794ZM19.0453 22.8287L16.8083 20.3084C16.6102 20.0852 16.2801 20.0364 16.0262 20.1933C14.0558 21.4083 11.5353 21.1126 9.89663 19.4739C8.14515 17.7225 6.91843 15.7168 6.44233 13.8261C5.99951 12.0671 6.2539 10.5999 7.15872 9.69517C8.0634 8.79029 9.53055 8.53603 11.2895 8.97891C13.1802 9.45495 15.186 10.6816 16.9374 12.4331C18.576 14.0717 18.8717 16.5922 17.6567 18.5625C17.5 18.8166 17.5486 19.1465 17.7718 19.3447L20.3711 21.6518L19.0453 22.8287Z" fill="#242731"/>
</g>
<defs>
<clipPath id="clip0">
<rect width="34.2222" height="34.2222" fill="white" transform="translate(5 5)"/>
</clipPath>
</defs>
</svg>
