<svg width="44" height="44" viewBox="0 0 44 44" fill="none" xmlns="http://www.w3.org/2000/svg">
<g clip-path="url(#clip0)">
<path d="M22.5348 18.4359H22.657V18.3137V10.862V10.7398H22.5348H10.4739H10.3517V10.862V18.3137V18.4359H10.4739H22.5348ZM9.70571 9.44784H23.303C23.658 9.44784 23.949 9.73882 23.949 10.0938V19.0819C23.949 19.4369 23.658 19.7279 23.303 19.7279H9.70571C9.3507 19.7279 9.05972 19.4369 9.05972 19.0819V10.0938C9.05972 9.73882 9.3507 9.44784 9.70571 9.44784Z" fill="#242731" stroke="white" stroke-width="0.244444"/>
<path d="M39.5584 36.9043H26.6832V24.6129H27.9354C29.0723 24.6129 29.9942 25.5425 29.9865 26.6794C29.9865 26.6871 29.9865 26.6871 29.9865 26.6948V28.8227C29.9865 31.0736 31.8071 32.8943 34.058 32.8943C36.3089 32.8943 38.1295 31.0736 38.1295 28.8227V16.6697C38.1295 15.4098 37.6609 14.196 36.8005 13.2665L30.7931 6.42174L29.6408 7.43577L34.2961 12.7441C32.6138 13.0283 31.4768 14.6185 31.761 16.3009C32.0069 17.7912 33.2975 18.8821 34.8108 18.8821C35.4485 18.8744 36.0707 18.6824 36.5931 18.3136V28.8227C36.5931 30.2209 35.4561 31.3578 34.058 31.3578C32.6599 31.3578 31.5229 30.2209 31.5229 28.8227V26.6948C31.5306 24.7051 29.925 23.0842 27.943 23.0765H27.9354H26.6832V8.76478C26.6832 7.01326 25.2697 5.56134 23.5182 5.56134H9.24481C7.49329 5.56134 6.09515 7.02094 6.09515 8.76478V36.9043H4.43581C4.0133 36.9043 3.6676 37.25 3.6676 37.6725C3.6676 38.095 4.0133 38.4407 4.43581 38.4407H39.5661C39.9886 38.4407 40.3343 38.095 40.3343 37.6725C40.3343 37.25 39.9886 36.9043 39.5584 36.9043ZM34.8108 17.338C33.9504 17.338 33.2591 16.6389 33.2591 15.7862C33.2591 14.9335 33.9581 14.2344 34.8108 14.2344C35.6712 14.2344 36.3626 14.9335 36.3626 15.7862C36.3626 16.6389 35.6636 17.338 34.8108 17.338ZM25.1468 36.9043H7.63157V8.76478C7.63157 7.85829 8.33832 7.09776 9.24481 7.09776H23.5182C24.4246 7.09776 25.1468 7.86597 25.1468 8.76478V36.9043Z" fill="#242731" stroke="white" stroke-width="0.244444"/>
</g>
<defs>
<clipPath id="clip0">
<rect width="36.6667" height="36.6667" fill="white" transform="translate(3.66669 3.66669)"/>
</clipPath>
</defs>
</svg>
