<svg width="44" height="44" viewBox="0 0 44 44" fill="none" xmlns="http://www.w3.org/2000/svg">
<path d="M27.7796 6.76286L26.7287 7.8137C26.5438 7.99865 26.4061 8.21197 26.3 8.43579L24.6271 6.76286C23.758 5.89382 22.3436 5.89382 21.4746 6.76287L20.4237 7.8137C19.5547 8.68274 19.5547 10.0972 20.4237 10.9662L24.1016 14.6441L14.6441 24.1016L10.9662 20.4237C10.0972 19.5547 8.68274 19.5547 7.8137 20.4237L6.76286 21.4746C5.89382 22.3436 5.89382 23.758 6.76286 24.6271L8.43579 26.3C8.21197 26.4061 7.99865 26.5438 7.8137 26.7287L6.76286 27.7796C5.89382 28.6486 5.89382 30.063 6.76286 30.9321L13.0679 37.2371C13.9369 38.1061 15.3513 38.1061 16.2204 37.2371L17.2712 36.1862C17.4562 36.0013 17.5938 35.788 17.7 35.5642L19.3729 37.2371C20.2419 38.1061 21.6563 38.1061 22.5254 37.2371L23.5762 36.1862C24.4453 35.3172 24.4453 33.9028 23.5762 33.0337L19.8983 29.3558L29.3558 19.8983L33.0337 23.5762C33.9028 24.4453 35.3172 24.4453 36.1862 23.5762L37.2371 22.5254C38.1061 21.6563 38.1061 20.2419 37.2371 19.3729L35.5642 17.7C35.788 17.5938 36.0013 17.4562 36.1862 17.2712L37.2371 16.2204C38.1061 15.3513 38.1061 13.9369 37.2371 13.0679L30.9321 6.76286C30.063 5.89382 28.6486 5.89382 27.7796 6.76286ZM16.2204 34.0846C16.5099 34.3741 16.5099 34.8459 16.2204 35.1354L15.1695 36.1862C14.88 36.4757 14.4082 36.4757 14.1187 36.1862L7.8137 29.8812C7.52419 29.5917 7.52419 29.1199 7.8137 28.8304L8.86453 27.7796C9.15404 27.4901 9.62586 27.4901 9.91537 27.7796L16.2204 34.0846ZM22.5254 34.0846C22.8149 34.3741 22.8149 34.8459 22.5254 35.1354L21.4746 36.1862C21.1851 36.4757 20.7132 36.4757 20.4237 36.1862L7.8137 23.5762C7.52419 23.2867 7.52419 22.8149 7.8137 22.5254L8.86453 21.4746C9.15404 21.1851 9.62586 21.1851 9.91537 21.4746L22.5254 34.0846ZM28.305 18.8475L18.8475 28.305L15.695 25.1525L25.1525 15.695L28.305 18.8475ZM36.1862 20.4237C36.4758 20.7132 36.4757 21.1851 36.1862 21.4746L35.1354 22.5254C34.8459 22.8149 34.3741 22.8149 34.0846 22.5254L21.4746 9.91537C21.1851 9.62586 21.1851 9.15404 21.4746 8.86454L22.5254 7.8137C22.8149 7.5242 23.2867 7.52419 23.5762 7.8137L36.1862 20.4237ZM36.1862 14.1187C36.4757 14.4082 36.4757 14.88 36.1862 15.1695L35.1354 16.2204C34.8459 16.5099 34.3741 16.5099 34.0846 16.2204L27.7796 9.91537C27.4901 9.62586 27.4901 9.15404 27.7796 8.86453L28.8304 7.8137C29.1199 7.52419 29.5917 7.52419 29.8812 7.8137L36.1862 14.1187Z" fill="#242731" stroke="white" stroke-width="0.244444"/>
</svg>
