<svg width="44" height="44" viewBox="0 0 44 44" fill="none" xmlns="http://www.w3.org/2000/svg">
<path d="M40.3334 28.7222H39.7223V23.8333C39.7214 23.1853 39.4636 22.564 39.0054 22.1058C38.5471 21.6475 37.9259 21.3897 37.2778 21.3889V11C37.277 10.3519 37.0192 9.73068 36.5609 9.27244C36.1027 8.8142 35.4814 8.55639 34.8334 8.55554H9.16671C8.51867 8.55639 7.89741 8.8142 7.43917 9.27244C6.98093 9.73068 6.72312 10.3519 6.72227 11V21.3889C6.07422 21.3897 5.45296 21.6475 4.99472 22.1058C4.53649 22.564 4.27867 23.1853 4.27783 23.8333V28.7222H3.66671C3.50464 28.7222 3.3492 28.7866 3.23459 28.9012C3.11999 29.0158 3.0556 29.1712 3.0556 29.3333V31.7778C3.0556 31.9398 3.11999 32.0953 3.23459 32.2099C3.3492 32.3245 3.50464 32.3889 3.66671 32.3889H4.27783V34.8333C4.27783 34.9954 4.34221 35.1508 4.45682 35.2654C4.57142 35.38 4.72686 35.4444 4.88894 35.4444H6.72227C6.86351 35.4445 7.0004 35.3956 7.10961 35.306C7.21882 35.2164 7.29358 35.0918 7.32116 34.9533L7.83449 32.3889H36.1656L36.6789 34.9533C36.7065 35.0918 36.7813 35.2164 36.8905 35.306C36.9997 35.3956 37.1366 35.4445 37.2778 35.4444H39.1112C39.2732 35.4444 39.4287 35.38 39.5433 35.2654C39.6579 35.1508 39.7223 34.9954 39.7223 34.8333V32.3889H40.3334C40.4955 32.3889 40.6509 32.3245 40.7655 32.2099C40.8801 32.0953 40.9445 31.9398 40.9445 31.7778V29.3333C40.9445 29.1712 40.8801 29.0158 40.7655 28.9012C40.6509 28.7866 40.4955 28.7222 40.3334 28.7222ZM7.94449 11C7.94492 10.676 8.07382 10.3653 8.30294 10.1362C8.53206 9.90709 8.84269 9.77819 9.16671 9.77776H34.8334C35.1574 9.77819 35.468 9.90709 35.6972 10.1362C35.9263 10.3653 36.0552 10.676 36.0556 11V21.3889H34.8334V18.9444C34.8325 18.2964 34.5747 17.6751 34.1165 17.2169C33.6582 16.7586 33.037 16.5008 32.3889 16.5H25.0556C24.4076 16.5008 23.7863 16.7586 23.3281 17.2169C22.8698 17.6751 22.612 18.2964 22.6112 18.9444V21.3889H21.3889V18.9444C21.3881 18.2964 21.1303 17.6751 20.672 17.2169C20.2138 16.7586 19.5925 16.5008 18.9445 16.5H11.6112C10.9631 16.5008 10.3419 16.7586 9.88361 17.2169C9.42537 17.6751 9.16756 18.2964 9.16671 18.9444V21.3889H7.94449V11ZM33.6112 18.9444V21.3889H23.8334V18.9444C23.8338 18.6204 23.9627 18.3098 24.1918 18.0807C24.4209 17.8515 24.7316 17.7226 25.0556 17.7222H32.3889C32.713 17.7226 33.0236 17.8515 33.2527 18.0807C33.4818 18.3098 33.6107 18.6204 33.6112 18.9444ZM20.1667 18.9444V21.3889H10.3889V18.9444C10.3894 18.6204 10.5183 18.3098 10.7474 18.0807C10.9765 17.8515 11.2871 17.7226 11.6112 17.7222H18.9445C19.2685 17.7226 19.5791 17.8515 19.8083 18.0807C20.0374 18.3098 20.1663 18.6204 20.1667 18.9444ZM5.50005 23.8333C5.50047 23.5093 5.62938 23.1987 5.8585 22.9695C6.08762 22.7404 6.39825 22.6115 6.72227 22.6111H37.2778C37.6018 22.6115 37.9125 22.7404 38.1416 22.9695C38.3707 23.1987 38.4996 23.5093 38.5 23.8333V28.7222H5.50005V23.8333ZM6.22116 34.2222H5.50005V32.3889H6.58783L6.22116 34.2222ZM38.5 34.2222H37.7789L37.4123 32.3889H38.5V34.2222ZM39.7223 31.1667H4.27783V29.9444H39.7223V31.1667Z" fill="#242731"/>
</svg>
