<svg width="44" height="44" viewBox="0 0 44 44" fill="none" xmlns="http://www.w3.org/2000/svg">
<path d="M37.4686 33.5314C37.4694 33.5072 37.4698 33.4831 37.4698 33.4592C37.4692 32.8517 37.2275 32.2692 36.7979 31.8395C36.3683 31.4099 35.7858 31.1683 35.1782 31.1676V20.5686L37.2407 19.0217C37.3123 18.968 37.3704 18.8983 37.4102 18.818C37.4499 18.7378 37.4704 18.6494 37.4698 18.5599C37.4693 18.4703 37.4477 18.3822 37.4069 18.3024C37.3662 18.2227 37.3073 18.1537 37.235 18.1009L32.3136 14.5044V8.25092C32.4655 8.25092 32.6113 8.19055 32.7187 8.08311C32.8262 7.97567 32.8865 7.82995 32.8865 7.678V5.38633C32.8865 5.23439 32.8262 5.08866 32.7187 4.98122C32.6113 4.87378 32.4655 4.81342 32.3136 4.81342H26.5844C26.4325 4.81342 26.2868 4.87378 26.1793 4.98122C26.0719 5.08866 26.0115 5.23439 26.0115 5.38633V7.678C26.0115 7.82995 26.0719 7.97567 26.1793 8.08311C26.2868 8.19055 26.4325 8.25092 26.5844 8.25092V10.3178L22.3391 7.21544C22.241 7.14374 22.1226 7.1051 22.0011 7.1051C21.8796 7.1051 21.7612 7.14374 21.6631 7.21544L6.76725 18.1009C6.69495 18.1537 6.63604 18.2227 6.59526 18.3024C6.55447 18.3822 6.53293 18.4703 6.53237 18.5599C6.53182 18.6494 6.55225 18.7378 6.59205 18.818C6.63184 18.8983 6.68988 18.968 6.76152 19.0217L8.82402 20.5686V31.1676C8.21644 31.1683 7.63394 31.4099 7.20432 31.8395C6.77469 32.2692 6.53303 32.8517 6.53235 33.4592C6.53235 33.4831 6.53278 33.5072 6.53364 33.5314C5.99316 33.6704 5.52195 34.0018 5.20844 34.4635C4.89493 34.9252 4.76065 35.4854 4.83081 36.039C4.90096 36.5926 5.17072 37.1016 5.58948 37.4705C6.00823 37.8394 6.54721 38.0428 7.10527 38.0426H36.8969C37.455 38.0428 37.994 37.8394 38.4127 37.4705C38.8315 37.1016 39.1012 36.5926 39.1714 36.039C39.2415 35.4854 39.1073 34.9252 38.7938 34.4635C38.4802 34.0018 38.009 33.6704 37.4686 33.5314ZM27.1574 5.95925H31.7407V7.10508H27.1574V5.95925ZM27.7303 11.1155V8.25092H31.1678V13.6671L27.6761 11.1155H27.7303ZM22.0011 8.38756L35.9341 18.5694L34.6 19.57L22.3381 10.6522C22.2402 10.5809 22.1222 10.5425 22.0011 10.5425C21.88 10.5425 21.762 10.5809 21.6641 10.6522L9.40216 19.57L8.06813 18.5694L22.0011 8.38756ZM5.95943 35.7509C5.95975 35.4501 6.07822 35.1614 6.28933 34.9471C6.50044 34.7328 6.78729 34.6099 7.08808 34.6051H7.08944C7.11873 34.6092 7.14802 34.6127 7.17788 34.6146C7.27282 34.6206 7.36776 34.6029 7.45413 34.563C7.5405 34.5231 7.61558 34.4623 7.67259 34.3862C7.72961 34.31 7.76676 34.2209 7.7807 34.1268C7.79464 34.0327 7.78493 33.9366 7.75245 33.8472C7.70503 33.7233 7.67989 33.5919 7.67818 33.4592C7.67854 33.1555 7.79938 32.8642 8.01419 32.6494C8.229 32.4346 8.52023 32.3138 8.82402 32.3134V36.8967H7.10527C6.80148 36.8964 6.51025 36.7756 6.29544 36.5607C6.08063 36.3459 5.95979 36.0547 5.95943 35.7509ZM30.5949 36.8967H23.7199V24.2926H30.5949V36.8967ZM31.7407 36.8967V23.7197C31.7407 23.5677 31.6803 23.422 31.5729 23.3146C31.4654 23.2071 31.3197 23.1467 31.1678 23.1467H23.1469C22.995 23.1467 22.8493 23.2071 22.7418 23.3146C22.6344 23.422 22.574 23.5677 22.574 23.7197V36.8967H9.96985V20.5739L22.0011 11.8239L34.0324 20.5739V36.8967H31.7407ZM36.8969 36.8967H35.1782V32.3134C35.482 32.3138 35.7732 32.4346 35.988 32.6494C36.2028 32.8642 36.3237 33.1555 36.324 33.4592C36.3223 33.592 36.2972 33.7235 36.2498 33.8475C36.2173 33.9369 36.2076 34.033 36.2215 34.1271C36.2354 34.2212 36.2726 34.3103 36.3296 34.3865C36.3866 34.4626 36.4617 34.5234 36.5481 34.5633C36.6344 34.6031 36.7294 34.6209 36.8243 34.6149C36.8542 34.613 36.8835 34.6094 36.9128 34.6054H36.9141C37.218 34.6076 37.5086 34.7306 37.7218 34.9471C37.9351 35.1635 38.0536 35.4559 38.0514 35.7598C38.0491 36.0637 37.9262 36.3542 37.7097 36.5675C37.4932 36.7808 37.2008 36.8993 36.8969 36.897V36.8967Z" fill="#242731"/>
<path d="M19.7093 23.1467H12.8343C12.6824 23.1467 12.5367 23.207 12.4292 23.3145C12.3218 23.4219 12.2614 23.5676 12.2614 23.7196V31.7404C12.2614 31.8924 12.3218 32.0381 12.4292 32.1455C12.5367 32.253 12.6824 32.3133 12.8343 32.3133H19.7093C19.8613 32.3133 20.007 32.253 20.1144 32.1455C20.2219 32.0381 20.2822 31.8924 20.2822 31.7404V23.7196C20.2822 23.5676 20.2219 23.4219 20.1144 23.3145C20.007 23.207 19.8613 23.1467 19.7093 23.1467ZM19.1364 27.1571H16.8447V24.2925H19.1364V27.1571ZM15.6989 24.2925V27.1571H13.4072V24.2925H15.6989ZM13.4072 28.3029H15.6989V31.1675H13.4072V28.3029ZM16.8447 31.1675V28.3029H19.1364V31.1675H16.8447Z" fill="#242731"/>
<path d="M25.9677 30.2412C26.0887 29.949 25.9499 29.6139 25.6577 29.4929C25.3654 29.3718 25.0304 29.5106 24.9093 29.8029C24.7883 30.0951 24.927 30.4302 25.2193 30.5512C25.5116 30.6723 25.8466 30.5335 25.9677 30.2412Z" fill="#242731"/>
</svg>
