<svg width="38" height="38" viewBox="0 0 38 38" fill="none" xmlns="http://www.w3.org/2000/svg">
<path d="M34.4686 30.5314C34.4694 30.5072 34.4698 30.4831 34.4698 30.4592C34.4692 29.8517 34.2275 29.2692 33.7979 28.8395C33.3683 28.4099 32.7858 28.1683 32.1782 28.1676V17.5686L34.2407 16.0217C34.3123 15.968 34.3704 15.8983 34.4102 15.818C34.4499 15.7378 34.4704 15.6494 34.4698 15.5599C34.4693 15.4703 34.4477 15.3822 34.4069 15.3024C34.3662 15.2227 34.3073 15.1537 34.235 15.1009L29.3136 11.5044V5.25092C29.4655 5.25092 29.6113 5.19055 29.7187 5.08311C29.8262 4.97567 29.8865 4.82995 29.8865 4.678V2.38633C29.8865 2.23439 29.8262 2.08866 29.7187 1.98122C29.6113 1.87378 29.4655 1.81342 29.3136 1.81342H23.5844C23.4325 1.81342 23.2868 1.87378 23.1793 1.98122C23.0719 2.08866 23.0115 2.23439 23.0115 2.38633V4.678C23.0115 4.82995 23.0719 4.97567 23.1793 5.08311C23.2868 5.19055 23.4325 5.25092 23.5844 5.25092V7.31778L19.3391 4.21544C19.241 4.14374 19.1226 4.1051 19.0011 4.1051C18.8796 4.1051 18.7612 4.14374 18.6631 4.21544L3.76725 15.1009C3.69495 15.1537 3.63604 15.2227 3.59526 15.3024C3.55447 15.3822 3.53293 15.4703 3.53237 15.5599C3.53182 15.6494 3.55225 15.7378 3.59205 15.818C3.63184 15.8983 3.68988 15.968 3.76152 16.0217L5.82402 17.5686V28.1676C5.21644 28.1683 4.63394 28.4099 4.20432 28.8395C3.77469 29.2692 3.53303 29.8517 3.53235 30.4592C3.53235 30.4831 3.53278 30.5072 3.53364 30.5314C2.99316 30.6704 2.52195 31.0018 2.20844 31.4635C1.89493 31.9252 1.76065 32.4854 1.83081 33.039C1.90096 33.5926 2.17072 34.1016 2.58948 34.4705C3.00823 34.8394 3.54721 35.0428 4.10527 35.0426H33.8969C34.455 35.0428 34.994 34.8394 35.4127 34.4705C35.8315 34.1016 36.1012 33.5926 36.1714 33.039C36.2415 32.4854 36.1073 31.9252 35.7938 31.4635C35.4802 31.0018 35.009 30.6704 34.4686 30.5314ZM24.1574 2.95925H28.7407V4.10508H24.1574V2.95925ZM24.7303 8.1155V5.25092H28.1678V10.6671L24.6761 8.1155H24.7303ZM19.0011 5.38756L32.9341 15.5694L31.6 16.57L19.3381 7.65215C19.2402 7.58091 19.1222 7.54254 19.0011 7.54254C18.88 7.54254 18.762 7.58091 18.6641 7.65215L6.40216 16.57L5.06813 15.5694L19.0011 5.38756ZM2.95943 32.7509C2.95975 32.4501 3.07822 32.1614 3.28933 31.9471C3.50044 31.7328 3.78729 31.6099 4.08808 31.6051H4.08944C4.11873 31.6092 4.14802 31.6127 4.17788 31.6146C4.27282 31.6206 4.36776 31.6029 4.45413 31.563C4.5405 31.5231 4.61558 31.4623 4.67259 31.3862C4.72961 31.31 4.76676 31.2209 4.7807 31.1268C4.79464 31.0327 4.78493 30.9366 4.75245 30.8472C4.70503 30.7233 4.67989 30.5919 4.67818 30.4592C4.67854 30.1555 4.79938 29.8642 5.01419 29.6494C5.229 29.4346 5.52023 29.3138 5.82402 29.3134V33.8967H4.10527C3.80148 33.8964 3.51025 33.7756 3.29544 33.5607C3.08063 33.3459 2.95979 33.0547 2.95943 32.7509ZM27.5949 33.8967H20.7199V21.2926H27.5949V33.8967ZM28.7407 33.8967V20.7197C28.7407 20.5677 28.6803 20.422 28.5729 20.3146C28.4654 20.2071 28.3197 20.1467 28.1678 20.1467H20.1469C19.995 20.1467 19.8493 20.2071 19.7418 20.3146C19.6344 20.422 19.574 20.5677 19.574 20.7197V33.8967H6.96985V17.5739L19.0011 8.82391L31.0324 17.5739V33.8967H28.7407ZM33.8969 33.8967H32.1782V29.3134C32.482 29.3138 32.7732 29.4346 32.988 29.6494C33.2028 29.8642 33.3237 30.1555 33.324 30.4592C33.3223 30.592 33.2972 30.7235 33.2498 30.8475C33.2173 30.9369 33.2076 31.033 33.2215 31.1271C33.2354 31.2212 33.2726 31.3103 33.3296 31.3865C33.3866 31.4626 33.4617 31.5234 33.5481 31.5633C33.6344 31.6031 33.7294 31.6209 33.8243 31.6149C33.8542 31.613 33.8835 31.6094 33.9128 31.6054H33.9141C34.218 31.6076 34.5086 31.7306 34.7218 31.9471C34.9351 32.1635 35.0536 32.4559 35.0514 32.7598C35.0491 33.0637 34.9262 33.3542 34.7097 33.5675C34.4932 33.7808 34.2008 33.8993 33.8969 33.897V33.8967Z" fill="#242731"/>
<path d="M16.7093 20.1467H9.83433C9.68238 20.1467 9.53666 20.207 9.42922 20.3145C9.32177 20.4219 9.26141 20.5676 9.26141 20.7196V28.7404C9.26141 28.8924 9.32177 29.0381 9.42922 29.1455C9.53666 29.253 9.68238 29.3133 9.83433 29.3133H16.7093C16.8613 29.3133 17.007 29.253 17.1144 29.1455C17.2219 29.0381 17.2822 28.8924 17.2822 28.7404V20.7196C17.2822 20.5676 17.2219 20.4219 17.1144 20.3145C17.007 20.207 16.8613 20.1467 16.7093 20.1467ZM16.1364 24.1571H13.8447V21.2925H16.1364V24.1571ZM12.6989 21.2925V24.1571H10.4072V21.2925H12.6989ZM10.4072 25.3029H12.6989V28.1675H10.4072V25.3029ZM13.8447 28.1675V25.3029H16.1364V28.1675H13.8447Z" fill="#242731"/>
<path d="M22.9677 27.2412C23.0887 26.949 22.9499 26.6139 22.6577 26.4929C22.3654 26.3718 22.0304 26.5106 21.9093 26.8029C21.7883 27.0951 21.927 27.4302 22.2193 27.5512C22.5116 27.6723 22.8466 27.5335 22.9677 27.2412Z" fill="#242731"/>
</svg>
