<svg width="44" height="44" viewBox="0 0 44 44" fill="none" xmlns="http://www.w3.org/2000/svg">
<g clip-path="url(#clip0)">
<path d="M38.9525 12.867C38.8255 12.7172 38.6391 12.6308 38.4427 12.6308H11.8497L10.9431 8.14183C10.8801 7.83002 10.6061 7.60577 10.2879 7.60577H5.55732C5.18816 7.60577 4.88892 7.90502 4.88892 8.27418C4.88892 8.64334 5.18816 8.94258 5.55732 8.94258H9.74099L14.1621 30.8324C13.4804 31.4117 13.047 32.2755 13.047 33.2388C13.047 34.9786 14.4608 36.3941 16.1986 36.3941C17.9363 36.3941 19.3501 34.9787 19.3501 33.2388C19.3501 32.5621 19.1363 31.9345 18.7727 31.4202H29.0374C28.6739 31.9345 28.46 32.5621 28.46 33.2388C28.46 34.9786 29.8737 36.3941 31.6115 36.3941C33.3493 36.3941 34.7631 34.9787 34.7631 33.2388C34.7631 32.5597 34.5477 31.93 34.1817 31.4145C34.5098 31.3719 34.7631 31.0914 34.7631 30.7518C34.7631 30.3826 34.4639 30.0834 34.0947 30.0834H15.3746L15.09 28.6744H33.5409C35.2967 28.6744 36.7794 27.4172 37.0666 25.6851L39.1021 13.4086C39.1343 13.2148 39.0795 13.0168 38.9525 12.867ZM18.0133 33.2388C18.0133 34.2415 17.1992 35.0573 16.1986 35.0573C15.1979 35.0573 14.3838 34.2416 14.3838 33.2388C14.3838 32.2359 15.198 31.4202 16.1986 31.4202C17.1993 31.4202 18.0133 32.236 18.0133 33.2388ZM31.6116 35.0573C30.6109 35.0573 29.7969 34.2416 29.7969 33.2388C29.7969 32.2359 30.611 31.4202 31.6116 31.4202C32.6123 31.4202 33.4264 32.236 33.4264 33.2388C33.4264 34.2415 32.6123 35.0573 31.6116 35.0573ZM35.7479 25.4665C35.5681 26.5507 34.6399 27.3376 33.5409 27.3376H14.8201L12.1198 13.9677H37.6544L35.7479 25.4665Z" fill="#242731"/>
<path d="M23.1978 25.1597C23.245 25.4889 23.527 25.7333 23.8595 25.7333H26.3264C26.659 25.7333 26.9409 25.4889 26.9881 25.1597L28.2522 16.3349C28.2797 16.1431 28.2225 15.9487 28.0956 15.8022C27.9687 15.6559 27.7844 15.5717 27.5906 15.5717H22.5954C22.4016 15.5717 22.2174 15.6559 22.0904 15.8022C21.9634 15.9487 21.9063 16.1431 21.9338 16.3349L23.1978 25.1597ZM26.8196 16.9085L25.7469 24.3965H24.4389L23.3663 16.9085H26.8196Z" fill="#242731"/>
<path d="M29.7023 25.7333H32.9676C33.2803 25.7333 33.5511 25.5166 33.6197 25.2116L35.6043 16.3868C35.6489 16.1887 35.6009 15.9811 35.4741 15.8226C35.3473 15.664 35.1552 15.5718 34.9522 15.5718H30.9665C30.634 15.5718 30.352 15.8162 30.3048 16.1454L29.0407 24.9702C29.0132 25.162 29.0704 25.3564 29.1973 25.5029C29.3243 25.6492 29.5086 25.7333 29.7023 25.7333ZM31.546 16.9085H34.1168L32.4328 24.3965H30.4733L31.546 16.9085Z" fill="#242731"/>
<path d="M14.5785 16.3725L16.3609 25.1972C16.4238 25.5091 16.6979 25.7333 17.016 25.7333H20.4835C20.6773 25.7333 20.8615 25.6492 20.9885 25.5028C21.1155 25.3563 21.1726 25.162 21.1452 24.9701L19.881 16.1453C19.8338 15.8162 19.5519 15.5717 19.2193 15.5717H15.2337C15.0332 15.5717 14.8433 15.6617 14.7164 15.8168C14.5894 15.972 14.5388 16.176 14.5785 16.3725ZM18.6399 16.9085L19.7126 24.3965H17.563L16.0506 16.9085H18.6399Z" fill="#242731"/>
</g>
<defs>
<clipPath id="clip0">
<rect width="34.2222" height="34.2222" fill="white" transform="translate(4.88892 4.88892)"/>
</clipPath>
</defs>
</svg>
