<svg width="44" height="44" viewBox="0 0 44 44" fill="none" xmlns="http://www.w3.org/2000/svg">
<path d="M16.3613 28.3721V27.6388H15.6279H5.89152C5.74282 27.6388 5.62225 27.5182 5.62225 27.3695V16.6305C5.62225 16.4819 5.74282 16.3613 5.89152 16.3613H15.6279H16.3613V15.6279V5.89152C16.3613 5.74282 16.4819 5.62225 16.6305 5.62225H27.3695C27.5182 5.62225 27.6388 5.74282 27.6388 5.89152V15.6279V16.3613H28.3721H38.1085C38.2572 16.3613 38.3778 16.4819 38.3778 16.6305V27.3695C38.3778 27.5182 38.2572 27.6388 38.1085 27.6388H28.3721H27.6388V28.3721V38.1085C27.6388 38.2572 27.5182 38.3778 27.3695 38.3778H16.6305C16.4819 38.3778 16.3613 38.2572 16.3613 38.1085V28.3721Z" stroke="#242731" stroke-width="1.46667"/>
</svg>
