<svg width="46" height="46" viewBox="0 0 46 46" fill="none" xmlns="http://www.w3.org/2000/svg">
<path d="M12.7083 21.9174V18.6674C13.0073 18.6674 13.25 18.4247 13.25 18.1257C13.25 17.8267 13.0073 17.584 12.7083 17.584C11.2144 17.584 10 18.7995 10 20.2924V21.3757C10 22.2716 10.7291 23.0007 11.625 23.0007H12.7083C13.0073 23.0007 13.25 22.758 13.25 22.459C13.25 22.16 13.0073 21.9174 12.7083 21.9174Z" fill="#828282"/>
<path d="M33.2917 17.584C32.9927 17.584 32.75 17.8267 32.75 18.1257C32.75 18.4247 32.9927 18.6674 33.2917 18.6674V21.9174C32.9927 21.9174 32.75 22.16 32.75 22.459C32.75 22.758 32.9927 23.0007 33.2917 23.0007H34.375C35.2709 23.0007 36 22.2716 36 21.3757V20.2924C36 18.7995 34.7856 17.584 33.2917 17.584Z" fill="#828282"/>
<path d="M19.2071 32.75C18.9081 32.75 18.6654 32.9927 18.6654 33.2917H15.4154C15.4154 32.9927 15.1727 32.75 14.8737 32.75C14.5747 32.75 14.332 32.9927 14.332 33.2917V34.375C14.332 35.2709 15.0611 36 15.957 36H18.1238C19.0197 36 19.7488 35.2709 19.7488 34.375V33.2917C19.7488 32.9927 19.5061 32.75 19.2071 32.75Z" fill="#828282"/>
<path d="M31.125 32.75C30.826 32.75 30.5833 32.9927 30.5833 33.2917H27.3333C27.3333 32.9927 27.0906 32.75 26.7916 32.75C26.4926 32.75 26.25 32.9927 26.25 33.2917V34.375C26.25 35.2709 26.9791 36 27.875 36H30.0417C30.9376 36 31.6667 35.2709 31.6667 34.375V33.2917C31.6667 32.9927 31.424 32.75 31.125 32.75Z" fill="#828282"/>
<path d="M31.1263 10H14.8763C13.3824 10 12.168 11.2155 12.168 12.7083V31.125C12.168 32.6178 13.3824 33.8333 14.8763 33.8333H31.1263C32.6202 33.8333 33.8346 32.6178 33.8346 31.125V12.7083C33.8346 11.2155 32.6202 10 31.1263 10ZM17.043 12.1667H28.9597C29.8556 12.1667 30.5847 12.8958 30.5847 13.7917C30.5847 14.6876 29.8556 15.4167 28.9597 15.4167H17.043C16.147 15.4167 15.418 14.6876 15.418 13.7917C15.418 12.8958 16.147 12.1667 17.043 12.1667ZM17.043 30.5833C16.147 30.5833 15.418 29.8542 15.418 28.9583C15.418 28.0624 16.147 27.3333 17.043 27.3333C17.9389 27.3333 18.668 28.0624 18.668 28.9583C18.668 29.8542 17.9389 30.5833 17.043 30.5833ZM28.9596 30.5833C28.0637 30.5833 27.3346 29.8542 27.3346 28.9583C27.3346 28.0624 28.0637 27.3333 28.9596 27.3333C29.8555 27.3333 30.5846 28.0624 30.5846 28.9583C30.5846 29.8542 29.8555 30.5833 28.9596 30.5833ZM31.668 23.5417C31.668 24.4376 30.9389 25.1667 30.043 25.1667H15.9596C15.0637 25.1667 14.3346 24.4376 14.3346 23.5417V18.125C14.3346 17.2291 15.0637 16.5 15.9596 16.5H30.0429C30.9389 16.5 31.6679 17.2291 31.6679 18.125V23.5417H31.668Z" fill="#828282"/>
<rect x="0.5" y="0.5" width="45" height="45" rx="22.5" stroke="#828282"/>
</svg>
