<svg width="44" height="44" viewBox="0 0 44 44" fill="none" xmlns="http://www.w3.org/2000/svg">
<g clip-path="url(#clip0)">
<path d="M13.5263 25.9108H8.31158V27.2145H13.5263V25.9108Z" fill="#242731"/>
<path d="M41.4867 33.4414L39.5312 29.5303C39.4208 29.3094 39.195 29.17 38.9481 29.17H35.0371V27.2145C35.0371 26.8545 34.7452 26.5626 34.3853 26.5626H21.3484C20.9885 26.5626 20.6966 26.8545 20.6966 27.2145V38.9476C20.6966 39.3076 20.9885 39.5995 21.3484 39.5995H24.0484C24.4013 40.9884 25.8135 41.8281 27.2023 41.4751C28.124 41.2409 28.8437 40.5212 29.078 39.5995H33.826C34.1789 40.9884 35.5911 41.8281 36.9799 41.4751C37.9016 41.2409 38.6213 40.5212 38.8556 39.5995H40.9037C41.2636 39.5995 41.5555 39.3076 41.5555 38.9476V33.7329C41.5555 33.6317 41.532 33.5319 41.4867 33.4414ZM26.5632 40.2513C25.8431 40.2513 25.2595 39.6677 25.2595 38.9476C25.2595 38.2276 25.8431 37.6439 26.5632 37.6439C27.2832 37.6439 27.8668 38.2276 27.8668 38.9476C27.8661 39.6673 27.2829 40.2506 26.5632 40.2513ZM33.7334 38.2958H29.078C28.7824 37.1476 27.7488 36.3438 26.5632 36.3403C25.3775 36.3438 24.3439 37.1476 24.0484 38.2958H22.0003V27.8663H33.7334V38.2958ZM37.6445 30.4737H38.5452L39.849 33.081H37.6445V30.4737ZM36.3408 40.2513C35.6207 40.2513 35.0371 39.6677 35.0371 38.9476C35.0371 38.2276 35.6207 37.6439 36.3408 37.6439C37.0608 37.6439 37.6445 38.2276 37.6445 38.9476C37.6437 39.6673 37.0605 40.2506 36.3408 40.2513ZM40.2518 38.2958H38.8556C38.5601 37.1476 37.5264 36.3438 36.3408 36.3403C35.8816 36.3429 35.4316 36.4681 35.0371 36.703V30.4737H36.3408V33.7329C36.3408 34.0929 36.6326 34.3847 36.9926 34.3847H40.2518V38.2958Z" fill="#242731"/>
<path d="M18.0885 11.5703H16.7855V12.8739H18.0885V11.5703Z" fill="#242731"/>
<path d="M20.6959 11.5703H19.3928V12.8739H20.6959V11.5703Z" fill="#242731"/>
<path d="M23.3033 11.5703H22.0003V12.8739H23.3033V11.5703Z" fill="#242731"/>
<path d="M25.9106 11.5703H24.6076V12.8739H25.9106V11.5703Z" fill="#242731"/>
<path d="M38.3528 13.3322L36.3333 11.3124C34.8319 9.81287 32.7981 8.96825 30.6761 8.96287H25.6206L22.553 4.05467C22.4338 3.86409 22.2249 3.74822 22.0001 3.74814H20.0446C19.6845 3.7483 19.3926 4.04041 19.3928 4.40063C19.3928 4.45376 19.3993 4.50664 19.4122 4.55822L20.5134 8.96287H15.3149L13.4988 2.90914C13.4161 2.63333 13.1622 2.44446 12.8744 2.44446H9.61516C9.25518 2.44446 8.96332 2.73632 8.96332 3.0963V9.61471H8.96943C8.96731 9.7868 9.0338 9.95269 9.15431 10.0756L13.2283 14.1496C14.9092 15.8414 17.197 16.7903 19.5818 16.785H19.7594L18.1397 20.4315C17.9936 20.7605 18.1418 21.1456 18.4707 21.2918C18.4899 21.3003 18.5094 21.3078 18.5292 21.3144L20.4835 21.9663C20.7572 22.0575 21.0583 21.9579 21.2238 21.7215L24.6772 16.785H36.9209C38.0375 16.787 38.9443 15.8835 38.9464 14.7669C38.9473 14.2288 38.7337 13.7124 38.3528 13.3322ZM21.6389 5.05182L24.0833 8.96287H21.8573L20.8795 5.05182H21.6389ZM10.267 3.74814H12.3893L13.9537 8.96287H10.267V3.74814ZM20.4345 20.5757L19.6225 20.3048L21.7649 15.4813H23.9983L20.4345 20.5757ZM37.5896 15.0344C37.481 15.3077 37.2148 15.4855 36.9209 15.4813H25.5893L25.7838 15.2031C25.9901 14.9081 25.9182 14.5016 25.6232 14.2953C25.5136 14.2187 25.3834 14.1776 25.2497 14.1776H21.3412C21.0835 14.1776 20.85 14.3294 20.7454 14.565L20.3384 15.4813H19.5818C17.5429 15.4858 15.587 14.6743 14.15 13.2279L11.1887 10.2666H30.6761C32.0973 10.2727 33.48 10.7291 34.6255 11.5702H29.8222V12.8739H36.0507L37.4326 14.2559C37.6414 14.4577 37.7039 14.7675 37.5896 15.0344Z" fill="#242731"/>
<path d="M18.4238 39.7722C18.0134 39.3315 17.4629 39.0465 16.8661 38.9659L19.3551 31.9965C19.476 31.657 19.2988 31.2838 18.9593 31.1629C18.9554 31.1615 18.9514 31.1602 18.9474 31.1588L17.3579 30.629L16.1233 23.8387C16.067 23.5286 15.797 23.3033 15.482 23.3033H12.8746V21.3478C12.8746 20.9878 12.5827 20.696 12.2228 20.696H9.61539C9.25541 20.696 8.96355 20.9878 8.96355 21.3478V23.3033H6.35618C6.0411 23.3033 5.77116 23.5287 5.71485 23.8387L4.48027 30.629L2.89075 31.1588C2.54894 31.2732 2.36464 31.6429 2.47895 31.9846C2.48026 31.9886 2.48164 31.9926 2.48303 31.9965L4.97208 38.9662C4.37622 39.0473 3.82672 39.3321 3.41687 39.7722C3.18099 40.0693 2.82443 40.2451 2.44514 40.2512V41.5549C3.15149 41.5511 3.82411 41.2522 4.30044 40.7306C4.53633 40.4332 4.89305 40.2573 5.2725 40.2512C5.4102 40.2501 5.54684 40.2756 5.67493 40.3263C5.68039 40.3287 5.68389 40.3339 5.68943 40.3362C5.89387 40.438 6.07948 40.5739 6.23845 40.7379C6.71967 41.2551 7.39302 41.5507 8.09945 41.5549C8.80564 41.551 9.4781 41.252 9.9541 40.7302C10.3642 40.1946 11.1308 40.0927 11.6665 40.5027C11.7519 40.5681 11.8283 40.6445 11.8937 40.7299C12.3693 41.2518 13.0414 41.5509 13.7474 41.5549C14.4534 41.5507 15.1263 41.2549 15.6068 40.7376C15.7644 40.5748 15.9483 40.4396 16.1507 40.3378C16.1566 40.3354 16.1604 40.3298 16.1661 40.3272C16.2945 40.2759 16.4316 40.2502 16.5699 40.2513C16.9484 40.2574 17.3043 40.4332 17.5391 40.7303C18.0148 41.252 18.6871 41.5509 19.393 41.555V40.2513C19.0144 40.2451 18.6586 40.0693 18.4238 39.7722ZM10.2672 21.9997H11.5709V23.3033H10.2672V21.9997ZM10.2672 39.0325C9.81176 39.1734 9.39971 39.4279 9.06988 39.7722C8.65873 40.3084 7.8907 40.4098 7.35448 39.9986C7.26941 39.9334 7.19331 39.8573 7.12805 39.7722C6.92573 39.5745 6.70142 39.4006 6.4595 39.2541L3.93468 32.185L10.2672 30.0743V39.0325ZM10.7128 28.5515L5.89077 30.1588L6.90015 24.607H14.938L15.9474 30.1588L11.1253 28.5515C10.9914 28.5069 10.8467 28.5069 10.7128 28.5515ZM15.3773 39.2583C15.1383 39.4042 14.9165 39.5767 14.7162 39.7725C14.3069 40.3076 13.5413 40.4095 13.0063 40.0003C12.9206 39.9347 12.844 39.8582 12.7785 39.7725C12.4467 39.4248 12.0308 39.1686 11.571 39.0288V30.0743L17.9035 32.185L15.3773 39.2583Z" fill="#242731"/>
<path d="M28.5179 11.5703H27.2149V12.8739H28.5179V11.5703Z" fill="#242731"/>
</g>
<defs>
<clipPath id="clip0">
<rect width="39.1111" height="39.1111" fill="white" transform="translate(2.44446 2.44446)"/>
</clipPath>
</defs>
</svg>
