<svg width="32" height="32" viewBox="0 0 32 32" fill="none" xmlns="http://www.w3.org/2000/svg">
<path d="M26.1818 16.3069C26.1818 10.5758 21.6233 5.92979 16 5.92979C10.3767 5.92979 5.81818 10.5758 5.81818 16.3069C5.81818 20.4465 8.19644 24.0199 11.6364 25.6854L11.6364 29.6489L11.6364 32C4.92071 30.0641 2.83469e-07 23.7712 1.94458e-07 16.3069C8.70618e-08 7.30086 7.16344 2.96173e-07 16 1.90798e-07C24.8366 8.54232e-08 32 7.30086 32 16.3069C32 23.7712 27.0793 30.0641 20.3636 32L20.3636 29.6489L20.3636 25.6854C23.8036 24.0199 26.1818 20.4465 26.1818 16.3069Z" fill="url(#paint0_linear)"/>
<defs>
<linearGradient id="paint0_linear" x1="32" y1="0" x2="18.1303" y2="38.5269" gradientUnits="userSpaceOnUse">
<stop stop-color="#F78D61"/>
<stop offset="1" stop-color="#ED6044"/>
</linearGradient>
</defs>
</svg>
