<svg width="40" height="40" viewBox="0 0 40 40" fill="none" xmlns="http://www.w3.org/2000/svg">
<path d="M18.5 5.5H23H25.5C26.3333 5.83333 28.1 6.6 28.5 7L31 9.5C31.5 10 32.5 12.5 32.5 13V16.5V20L31.5 24L28 29L23 34L19 37L18.5 35.5L15 32L11 29C10.3333 28 8.9 25.8 8.5 25C8 24 7.5 22.5 7 21.5C6.5 20.5 6.5 18 6.5 16.5C6.5 15.3 7.5 13.6667 8 13L11 8.5L15 5.5H18.5Z" fill="#F46857"/>
<path d="M20 39.5467L9.39334 28.94C7.29557 26.8422 5.86698 24.1695 5.28821 21.2598C4.70945 18.3501 5.00651 15.3341 6.14183 12.5932C7.27715 9.85232 9.19974 7.50965 11.6665 5.86144C14.1332 4.21323 17.0333 3.3335 20 3.3335C22.9667 3.3335 25.8668 4.21323 28.3335 5.86144C30.8003 7.50965 32.7229 9.85232 33.8582 12.5932C34.9935 15.3341 35.2906 18.3501 34.7118 21.2598C34.133 24.1695 32.7044 26.8422 30.6067 28.94L20 39.5467ZM28.25 26.5834C29.8815 24.9517 30.9925 22.8729 31.4426 20.6098C31.8927 18.3467 31.6615 16.001 30.7785 13.8693C29.8954 11.7376 28.4001 9.91554 26.4815 8.63365C24.563 7.35175 22.3074 6.66754 20 6.66754C17.6926 6.66754 15.437 7.35175 13.5185 8.63365C11.5999 9.91554 10.1046 11.7376 9.22153 13.8693C8.33847 16.001 8.10736 18.3467 8.55742 20.6098C9.00749 22.8729 10.1185 24.9517 11.75 26.5834L20 34.8334L28.25 26.5834ZM20 21.6667C19.116 21.6667 18.2681 21.3155 17.643 20.6904C17.0179 20.0653 16.6667 19.2174 16.6667 18.3334C16.6667 17.4493 17.0179 16.6015 17.643 15.9763C18.2681 15.3512 19.116 15 20 15C20.8841 15 21.7319 15.3512 22.357 15.9763C22.9821 16.6015 23.3333 17.4493 23.3333 18.3334C23.3333 19.2174 22.9821 20.0653 22.357 20.6904C21.7319 21.3155 20.8841 21.6667 20 21.6667Z" fill="#242731"/>
</svg>
