<svg width="18" height="18" viewBox="0 0 18 18" fill="none" xmlns="http://www.w3.org/2000/svg">
<path d="M8.991 18C4.02161 17.995 -0.00330802 13.9634 2.04015e-06 8.994C0.00331618 4.02461 4.03361 -0.00165379 9.003 5.09601e-07C13.9724 0.00165583 18 4.0306 18 9C17.997 13.9728 13.9638 18.002 8.991 18ZM1.8 9.15479C1.84259 13.1159 5.077 16.2986 9.03829 16.2774C12.9996 16.256 16.1996 13.0387 16.1996 9.07739C16.1996 5.11605 12.9996 1.89879 9.03829 1.87739C5.077 1.85621 1.84259 5.03888 1.8 9V9.15479ZM9.9 13.5H8.1V11.7H9.9V13.5ZM9.9 9.89999H8.1V4.5H9.9V9.89999Z" fill="#AEB1B5"/>
</svg>
