<svg width="18" height="18" viewBox="0 0 18 18" fill="none" xmlns="http://www.w3.org/2000/svg">
<path d="M17.7802 16.7198L12.6615 11.6011C13.653 10.3764 14.25 8.82016 14.25 7.12518C14.25 3.19672 11.0535 0.000244141 7.12506 0.000244141C3.1966 0.000244141 0.000152588 3.19669 0.000152588 7.12515C0.000152588 11.0536 3.19663 14.2501 7.12509 14.2501C8.82007 14.2501 10.3763 13.6531 11.601 12.6616L16.7197 17.7803C16.866 17.9266 17.058 18.0001 17.25 18.0001C17.442 18.0001 17.634 17.9266 17.7803 17.7803C18.0735 17.4871 18.0735 17.0131 17.7802 16.7198ZM7.12509 12.7501C4.02311 12.7501 1.50015 10.2271 1.50015 7.12515C1.50015 4.02317 4.02311 1.50021 7.12509 1.50021C10.2271 1.50021 12.75 4.02317 12.75 7.12515C12.75 10.2271 10.227 12.7501 7.12509 12.7501Z" fill="#575F6E"/>
</svg>
