<svg width="20" height="19" viewBox="0 0 20 19" fill="none" xmlns="http://www.w3.org/2000/svg">
<path d="M17.3335 0.75H2.66683C2.1806 0.75 1.71428 0.943154 1.37047 1.28697C1.02665 1.63079 0.833496 2.0971 0.833496 2.58333V17.6667C0.833496 17.9428 1.05735 18.1667 1.3335 18.1667H1.54306C1.67566 18.1667 1.80284 18.114 1.89661 18.0202L5.27038 14.6464C5.36415 14.5527 5.49133 14.5 5.62394 14.5H17.3335C17.8197 14.5 18.286 14.3068 18.6299 13.963C18.9737 13.6192 19.1668 13.1529 19.1668 12.6667V2.58333C19.1668 2.0971 18.9737 1.63079 18.6299 1.28697C18.286 0.943154 17.8197 0.75 17.3335 0.75ZM17.3335 12.6667H4.70727C4.57466 12.6667 4.44748 12.7193 4.35372 12.8131L3.52038 13.6464C3.2054 13.9614 2.66683 13.7383 2.66683 13.2929V3.08333C2.66683 2.80719 2.89069 2.58333 3.16683 2.58333H17.3335" fill="#242731"/>
</svg>
