<svg width="20" height="20" viewBox="0 0 20 20" fill="none" xmlns="http://www.w3.org/2000/svg">
<path fill-rule="evenodd" clip-rule="evenodd" d="M19.1347 12.2292C19.1351 12.2295 19.1354 12.2297 19.1356 12.23C19.5598 12.6292 19.6565 13.2625 19.3723 13.77L17.9523 16.225C17.6715 16.725 17.0556 16.965 16.4931 16.7892L14.8281 16.2642C14.264 16.7042 13.6556 17.0567 13.0156 17.3167L12.6315 19.025C12.5056 19.5892 11.9948 20 11.4165 20H8.58313C8.0048 20 7.49397 19.5892 7.36813 19.0233L6.98397 17.3167C6.34397 17.0567 5.73564 16.7033 5.17147 16.2642L3.50814 16.7892C2.94314 16.9642 2.32814 16.725 2.0448 16.22L0.630636 13.775C0.343136 13.2625 0.439802 12.6292 0.863969 12.23L2.14897 11.0492C2.10564 10.6942 2.08314 10.3425 2.08314 10C2.08314 9.6575 2.10564 9.30583 2.1498 8.95083L0.868136 7.77333C0.439802 7.37083 0.343135 6.7375 0.628135 6.22917L2.04814 3.77417C2.32814 3.27417 2.94564 3.03667 3.50647 3.21083L5.17147 3.73583C5.73564 3.29667 6.34397 2.94333 6.98397 2.68333L7.36813 0.975C7.49397 0.410833 8.0048 0 8.58313 0H11.4165C11.9948 0 12.5056 0.410833 12.6315 0.975833L13.0156 2.68333C13.6556 2.94333 14.264 3.29667 14.8281 3.73583L16.4915 3.21083C17.0556 3.035 17.6715 3.275 17.9548 3.77917L19.369 6.22417C19.6565 6.7375 19.5598 7.37083 19.1356 7.77L17.8506 8.95083C17.894 9.30583 17.9165 9.6575 17.9165 10C17.9165 10.3425 17.894 10.6942 17.8506 11.0492L19.1323 12.2267C19.1329 12.2278 19.1339 12.2286 19.1347 12.2292ZM9.99982 15C12.7612 15 14.9998 12.7614 14.9998 10C14.9998 7.23858 12.7612 5 9.99982 5C7.23839 5 4.99982 7.23858 4.99982 10C4.99982 12.7614 7.23839 15 9.99982 15Z" fill="#242731"/>
</svg>
