<svg width="16" height="18" viewBox="0 0 16 18" fill="none" xmlns="http://www.w3.org/2000/svg">
<path d="M8.00002 18C9.24174 18 10.249 16.9928 10.249 15.75H5.75108C5.75108 16.9928 6.75831 18 8.00002 18ZM15.5723 12.7368C14.8931 12.0069 13.6222 10.909 13.6222 7.3125C13.6222 4.58086 11.7069 2.39414 9.12432 1.85766V1.125C9.12432 0.503789 8.62088 0 8.00002 0C7.37916 0 6.87573 0.503789 6.87573 1.125V1.85766C4.29315 2.39414 2.37784 4.58086 2.37784 7.3125C2.37784 10.909 1.10694 12.0069 0.42772 12.7368C0.216782 12.9635 0.123266 13.2346 0.125024 13.5C0.128891 14.0766 0.581352 14.625 1.25354 14.625H14.7465C15.4187 14.625 15.8715 14.0766 15.875 13.5C15.8768 13.2346 15.7833 12.9632 15.5723 12.7368Z" fill="#242731"/>
</svg>
