<svg width="20" height="20" viewBox="0 0 20 20" fill="none" xmlns="http://www.w3.org/2000/svg">
<path fill-rule="evenodd" clip-rule="evenodd" d="M10 20C15.5228 20 20 15.5228 20 10C20 4.47715 15.5228 0 10 0C4.47715 0 0 4.47715 0 10C0 15.5228 4.47715 20 10 20ZM9 14V16H11V14H9ZM10.77 9.82197C9.64614 10.4808 8.9684 11.6976 9 13H11C11.0847 12.0328 11.6177 11.1612 12.44 10.645C13.3497 10.0602 13.9284 9.07898 14 7.99997C14.0161 6.5709 13.2685 5.24182 12.039 4.51336C10.8094 3.78491 9.28461 3.76776 8.03897 4.46836C6.79333 5.16897 6.01608 6.4809 6 7.90997V7.99997H8C8 6.8954 8.89543 5.99997 10 5.99997C11.1046 5.99997 12 6.8954 12 7.99997C12 8.87897 11.4313 9.31498 10.7722 9.82025L10.77 9.82197Z" fill="#242731"/>
</svg>
